PathFileType	4	(X/Y/Z)	pose_F01_0-96.trc
DataRate	CameraRate	NumFrames	NumMarkers	Units	OrigDataRate	OrigDataStartFrame	OrigNumFrames
30	30	6	21	m	30	60	96
Frame#	Time	CHip			RHip			RKnee			RAnkle			RBigToe			RSmallToe			RHeel			LHip			LKnee			LAnkle			LBigToe			LSmallToe			LHeel			Neck			Nose			RShoulder			RElbow			RWrist			LShoulder			LElbow			LWrist			
		X1	Y1	Z1	X2	Y2	Z2	X3	Y3	Z3	X4	Y4	Z4	X5	Y5	Z5	X6	Y6	Z6	X7	Y7	Z7	X8	Y8	Z8	X9	Y9	Z9	X10	Y10	Z10	X11	Y11	Z11	X12	Y12	Z12	X13	Y13	Z13	X14	Y14	Z14	X15	Y15	Z15	X16	Y16	Z16	X17	Y17	Z17	X18	Y18	Z18	X19	Y19	Z19	X20	Y20	Z20	X21	Y21	Z21	
60	2.0	-0.18895529448741635	1.8319084530237333	-0.5141743844875921	-0.2005083649690314	1.8293523932393354	-0.46098320866676934	-0.19207905733409897	1.699850274438929	-0.44547816094232257													-0.17237080229767296	1.8326407600307568	-0.5715785620580408	-0.1662134792186951	1.6987031454784043	-0.5324491153211139	-0.16900582481400123	1.5672431081436264	-0.5184283609924996	-0.2107326020173795	1.5330567770376229	-0.545482734027899	-0.19798354296132442	1.5388486129888799	-0.5546955590266484	-0.16361477330852037	1.5571474102129896	-0.5140863054269246	-0.1785617187883446	1.9841975464625947	-0.5203037771333353	-0.19612614045618093	2.055969009028221	-0.5694367688251056	-0.20320947378427778	1.979176955850167	-0.44926824197076237	-0.2193017233653067	1.8985014779103229	-0.4226869753487633	-0.2347941382368524	1.824898791435319	-0.40430655103960217	-0.15483483008010784	1.9889361876542058	-0.6010890524295458	-0.1312361891058563	1.9533441518949424	-0.6953869117158172	-1.4226637723714037	1.8725765711305231	0.6174608262401602
61	2.033333333333333	-0.18948096768472036	1.8287854309414235	-0.5134723100468062	-0.2001583559245781	1.827287166279402	-0.4571369858396051	-0.18931729712319004	1.6984887484331812	-0.4438635920789762													-0.17294545774746034	1.829595295229251	-0.5709064512073326	-0.1671076713810418	1.6987801502928306	-0.5355927794858338	-0.16800275882745128	1.5668578101425146	-0.5151895291167478	-0.20877988705052467	1.533510771908813	-0.5476287186953324	-0.198062487156213	1.5392989766107477	-0.5546938397112354	-0.16388359996072552	1.5585884792571136	-0.5137074347437676	-0.1774112828091147	1.9806002416153867	-0.5248819535232597	-0.19708453446926447	2.0536166827818256	-0.5723253731630108	-0.20298651877061064	1.9765428859293985	-0.4483782428689697	-0.2172328572499382	1.895064176614387	-0.42434602498387297	-0.2318799681193576	1.822964336051327	-0.41175322529130043	-0.1522270104765225	1.986091405491286	-0.6113437964589925	-0.13168257730061345	1.9390280471342032	-0.6819192609195868	-1.3850301341719145	1.8513448431919104	0.5813113950511359
62	2.066666666666667	-0.18810978598625863	1.8312362908855924	-0.5192591636575916	-0.2008068139269279	1.8296931807914176	-0.46090795717495353	-0.188264652862188	1.6981755013144273	-0.44054287001339426													-0.17253276914071028	1.8319246103982645	-0.5715490034817234	-0.16625118452598622	1.698835313530978	-0.5323951731620219	-0.16909162496735408	1.5672654160048753	-0.518372314148073	-0.2106956068920727	1.535679736188636	-0.5457879916786822	-0.1989462906827677	1.5389801333684685	-0.5579140283399127	-0.16377828818644968	1.5574877231597124	-0.5140306125174356	-0.1774940328075144	1.9832257644173648	-0.525866953040361	-0.19805028816532808	2.052644870283464	-0.5754526504680996	-0.20197640939669562	1.9792466524033554	-0.45417324377825496	-0.21518354655128188	1.8969295362552718	-0.42675014692239543	-0.22964154162492062	1.8271271603367836	-0.4144217642190278	-0.1504549953385098	1.9886496046272275	-0.61482197096397	-0.1313463512054505	1.932466965800282	-0.6660267557869154	-0.78942327508609	1.8739419927359395	-0.037050548153125695
63	2.1	-0.18750163842422093	1.8289842640159115	-0.5156207269387149	-0.19899596226724106	1.8263108889345854	-0.45362521918777965	-0.18798959379090446	1.6968276894103036	-0.44056352298354834													-0.17289064426071646	1.829710553306714	-0.5709833333617451	-0.16425525186307527	1.6991727849199407	-0.5346658247629354	-0.16808399285070405	1.5668505893142493	-0.5151815956326208	-0.20797474027103025	1.5346373579634875	-0.5440691054124492	-0.1980032555648219	1.5391459353346097	-0.5546562729851284	-0.16572151527329604	1.5571600831579429	-0.5118307483445013	-1.8255110387534297	1.8919900906954852	1.3081543092371832	-0.19800917968253953	2.0518347425642802	-0.5751546166008517	-0.20197218623553917	1.9777982967472423	-0.45389981756319525	-0.21521043245981591	1.8936178162068351	-0.42622828329758883	-0.23028439890612137	1.8261345490811032	-0.42639439870637535	-0.1523790940736854	1.9861391141145641	-0.6118195793537553	-0.13555900577614416	1.9226223488805556	-0.6595513570996956	-0.19381641600026564	1.8965391422799684	-0.6554124913573873
64	2.1333333333333333	-0.1874742776501792	1.8260895173392613	-0.5153897464482834	-0.1981913211471988	1.8248122352065579	-0.45901260368969743	-0.18621699162339134	1.69815072000334	-0.44277205664620806													-0.17089228860579622	1.8270311656184948	-0.5728642146598903	-0.16440870531127594	1.697496381104728	-0.5342511464888212	-0.16842228987134997	1.5659561992622684	-0.5145689422644647	-0.21085105823930242	1.5332929923827368	-0.5454261017484606	-0.20013014578209884	1.539016362060353	-0.5525139150451078	-0.1642166545263955	1.5571833436673337	-0.5134290082605348	-1.815722402602484	1.8918301719045698	1.2902016744070715	-0.19894093218934883	2.050819400655364	-0.5782280828611652	-0.20194622216138952	1.977738103848086	-0.4539482484115874	-0.21304946246385692	1.8949591488756283	-0.42852384547272715	-0.22649126159609528	1.8243518277946988	-0.4219389784325094	-0.15110389374798536	1.9847189875571847	-0.6168936422018737	-0.13757406928043167	1.9148587071078627	-0.6531650474850559	-0.1992553588014987	1.8743345588270597	-0.6275700922866974
65	2.1666666666666665	-0.18857072321902119	1.823694421587588	-0.5180889494973474	-0.20113829517338533	1.8214404415305931	-0.4595337035341311	-0.18633377261028913	1.6959466005428818	-0.4424583729020627													-0.17304740768981922	1.8242379004325193	-0.5703448027460346	-0.16539584290382145	1.6953056175401768	-0.5370244021652634	-0.16836163570489154	1.5656109591457696	-0.5145672185532785	-0.2119943057349016	1.533501037864218	-0.5400533961413478	-0.20019339588533633	1.5392998017645798	-0.552485232050492	-0.1639829811292941	1.5562070104539458	-0.5134105948914879	-1.806347653950756	1.891721400796765	1.2729876340331292	-0.19895934953471026	2.050893967600086	-0.578299229435929	-0.2020671817628003	1.9766156578109744	-0.45397202958789623	-0.2131915810069067	1.8911504911112016	-0.4279901838314477	-0.22548332588870348	1.8196137396459116	-0.42649575917026794	-0.15118958792646592	1.9820885065589369	-0.6165711974818864	-0.13558251275618557	1.9099948723670963	-0.654658876072088	-0.18910222547348507	1.859124210753513	-0.628458862548088
